<svg xmlns="http://www.w3.org/2000/svg" viewBox="0 0 16 16" width="16" height="16">
  <path fill="#c9a000" d="M8 1c0 0-1.5 2-1.5 4.5c0 1.5 0.5 2.5 0.5 2.5s-1-0.5-2-2c-0.5-0.8-0.5-1.5-0.5-1.5s-1.5 2-1.5 4c0 3 2.5 5.5 5 5.5s5-2.5 5-5.5c0-3.5-2-5.5-3-6.5c-0.5-0.5-1-1-1-1s0.5 1.5 0.5 2.5c0 1-0.5 2-1.5 2c-0.5 0-1-0.5-1-1.5c0-1.5 1-3 1-3z"/>
  <path fill="#ffe066" d="M8 6c0 0-0.8 1-0.8 2.2c0 0.8 0.3 1.3 0.3 1.3s-0.5-0.3-1-1c-0.3-0.4-0.3-0.8-0.3-0.8s-0.7 1-0.7 2c0 1.5 1.2 2.8 2.5 2.8s2.5-1.3 2.5-2.8c0-1.8-1-2.8-1.5-3.3c-0.3-0.3-0.5-0.5-0.5-0.5s0.3 0.8 0.3 1.3c0 0.5-0.3 1-0.8 1c-0.3 0-0.5-0.3-0.5-0.8c0-0.8 0.5-1.5 0.5-1.5z"/>
</svg>
